<svg xmlns="http://www.w3.org/2000/svg" xmlns:xlink="http://www.w3.org/1999/xlink" width="19.025" height="23.734" viewBox="0 0 19.025 23.734">
  <defs>
    <clipPath id="clip-path">
      <rect width="19.026" height="23.734" fill="none"/>
    </clipPath>
  </defs>
  <g id="Repeat_Grid_5" data-name="Repeat Grid 5" transform="translate(-0.001)" clip-path="url(#clip-path)">
    <g id="Group_225" data-name="Group 225" transform="translate(0.502 0.5)">
      <g id="shopping-bag" transform="translate(0 0)">
        <g id="Group_224" data-name="Group 224" transform="translate(0)">
          <g id="Group_223" data-name="Group 223" transform="translate(0)">
            <path id="Path_216" data-name="Path 216" d="M71.032,18.748,70.016,5.954a1.6,1.6,0,0,0-1.587-1.47h-2v-.09a4.394,4.394,0,1,0-8.787,0v.09h-2a1.6,1.6,0,0,0-1.586,1.468l-1.015,12.8a3.7,3.7,0,0,0,3.69,3.985h10.62a3.7,3.7,0,0,0,3.69-3.987ZM58.969,4.394a3.062,3.062,0,1,1,6.125,0v.09H58.969ZM69.08,20.643a2.345,2.345,0,0,1-1.738.76H56.721a2.37,2.37,0,0,1-2.363-2.55l1.015-12.8a.261.261,0,0,1,.259-.24h2v1.64a.666.666,0,1,0,1.331,0V5.816h6.125v1.64a.666.666,0,1,0,1.331,0V5.816h2a.262.262,0,0,1,.259.242L69.7,18.851A2.346,2.346,0,0,1,69.08,20.643Z" transform="translate(-53.02)" fill="#373435" stroke="#373435" stroke-width="1"/>
          </g>
        </g>
      </g>
    </g>
  </g>
</svg>
