<svg xmlns="http://www.w3.org/2000/svg" width="49.236" height="34.317" viewBox="0 0 49.236 34.317">
  <g id="Group_926" data-name="Group 926" transform="translate(-130.502 -4572)">
    <rect id="Rectangle_Copy_4" data-name="Rectangle Copy 4" width="49.237" height="34.317" rx="3" transform="translate(130.502 4572)" fill="#f6f6f6"/>
    <g id="mc_symbol" transform="translate(171.238 4596.392) rotate(171)">
      <g id="Group" opacity="0">
        <rect id="Rectangle" width="29.703" height="19.374" fill="#fff"/>
      </g>
      <rect id="Rectangle-2" data-name="Rectangle" width="7.835" height="12.621" transform="translate(10.935 3.375)" fill="#ff5f00"/>
      <path id="Path" d="M10.059,8.025a7.973,7.973,0,0,1,3.108-6.309,8.22,8.22,0,0,0-11.008.865,7.945,7.945,0,0,0,0,10.89,8.22,8.22,0,0,0,11.008.865A7.973,7.973,0,0,1,10.059,8.025Z" transform="translate(1.683 1.662)" fill="#eb001b"/>
      <path id="Shape" d="M.423.634H.358V0h.09l.1.452L.657,0H.746V.632H.684V.154l-.1.412H.52L.423.154V.633Zm-.251,0H.117V.109H0V0H.3V.109H.172V.632Z" transform="translate(27.085 14.349)" fill="#f79e1b"/>
      <path id="Path-2" data-name="Path" d="M13.168,8.028a8.017,8.017,0,0,1-4.582,7.219A8.232,8.232,0,0,1,0,14.338,7.986,7.986,0,0,0,3.11,8.027,7.986,7.986,0,0,0,0,1.717,8.232,8.232,0,0,1,8.586.807a8.017,8.017,0,0,1,4.582,7.219Z" transform="translate(14.85 1.659)" fill="#f79e1b"/>
    </g>
  </g>
</svg>
