<svg xmlns="http://www.w3.org/2000/svg" width="300.002" height="47.657" viewBox="0 0 300.002 47.657">
  <g id="Symbol_3_1" data-name="Symbol 3 – 1" transform="translate(-131.502 -135.001)">
    <g id="Group_325" data-name="Group 325" transform="translate(0.5 46.739)">
      <path id="Path_224" data-name="Path 224" d="M807.988,431.706l-2.351.053V395.489a9.035,9.035,0,0,0-7.9-8.924H793.78v45.193H782.474V396.22a12.153,12.153,0,0,1,3.3-8.35,10.386,10.386,0,0,1,7.4-3.6l-.05-.052h4.552a11.128,11.128,0,0,1,7.954,3.757,12.706,12.706,0,0,1,2.4,7.723l-.051,36.008Z" transform="translate(-377.036 -295.91)" fill="#373435" fill-rule="evenodd"/>
      <path id="Path_225" data-name="Path 225" d="M361.111,431.706l-2.351.053V395.489a9.035,9.035,0,0,0-7.9-8.924H346.9v45.193H335.6V396.22a12.155,12.155,0,0,1,3.3-8.35,10.389,10.389,0,0,1,7.4-3.6l-.05-.052H350.8a11.128,11.128,0,0,1,7.955,3.757,12.707,12.707,0,0,1,2.4,7.723l-.05,36.008Z" transform="translate(-125.07 -295.91)" fill="#373435" fill-rule="evenodd"/>
      <path id="Path_226" data-name="Path 226" d="M178.78,431.871l-2.351.052V395.655a9.034,9.034,0,0,0-7.9-8.924h-3.952v45.192H153.266V396.386a12.155,12.155,0,0,1,3.3-8.35,10.392,10.392,0,0,1,7.4-3.6l-.05-.052h4.552a11.128,11.128,0,0,1,7.954,3.757,12.706,12.706,0,0,1,2.4,7.723l-.05,36.008Z" transform="translate(-22.264 -296.004)" fill="#373435" fill-rule="evenodd"/>
      <line id="Line_6" data-name="Line 6" transform="translate(324.786 94.189)" fill="none" stroke="#373435" stroke-miterlimit="22.926" stroke-width="0.216"/>
      <path id="Path_227" data-name="Path 227" d="M605.691,392.116h-7.2a7.257,7.257,0,0,1-4.7-1.879c-1.4-1.253-2.1-2.818-2.3-6.053l2.1.1c.2,3.652,2.3,5.949,5,5.949l7.054-.052v.052h.3a15.248,15.248,0,0,1,6.5,1.826c1.5,1.044,4.3,5.323,4.3,7.723l-.15.1h.15v20.038a12,12,0,0,1-3.052,8.349,10.926,10.926,0,0,1-7.6,3.392h.05l-.05.1h-3.352a11.5,11.5,0,0,1-8.154-3.287,13.492,13.492,0,0,1-3.3-8.715v-5.74h2l-.05,5.9a11.081,11.081,0,0,0,1.351,5.114,9.607,9.607,0,0,0,8.1,4.644h2.952l.05.418v-37.99Z" transform="translate(-269.238 -295.891)" fill="#373435" fill-rule="evenodd"/>
      <path id="Path_228" data-name="Path 228" d="M255.314,431.647a11.216,11.216,0,0,1-7.5-3.392,12.113,12.113,0,0,1-3.2-8.349V384.213l11.206-.1v45.555h2.951a9.608,9.608,0,0,0,8.1-4.644,11.079,11.079,0,0,0,1.351-5.114l-.05-5.9h2v5.74a13.491,13.491,0,0,1-3.3,8.714,11.5,11.5,0,0,1-8.155,3.288h-3.352l-.05-.1Z" transform="translate(-74.898 -295.848)" fill="#373435" fill-rule="evenodd"/>
      <path id="Path_229" data-name="Path 229" d="M512.368,392.12h-7.2a6.754,6.754,0,0,1-4.7-1.879c-1.4-1.252-2.1-2.713-2.3-5.949h2.1c.2,3.653,2.3,5.949,5,5.949h7.3l.049.1a8.35,8.35,0,0,1,5.7,2.505,9.279,9.279,0,0,1,2.452,6.471h.2a9.588,9.588,0,0,1-7.955,8.976v.052a11.5,11.5,0,0,1,7.2,3.235,11.868,11.868,0,0,1,3.5,8.35h.2a12.36,12.36,0,0,1-3.5,8.35,10.883,10.883,0,0,1-7.6,3.444h.1l-.1.1h-3.3a11.574,11.574,0,0,1-8.2-3.34,13.624,13.624,0,0,1-3.3-8.663v-5.74h2v5.845a10.911,10.911,0,0,0,1.3,5.114,9.6,9.6,0,0,0,8.1,4.7h3V409.081h-4.8V407.1h4.753V392.12Z" transform="translate(-216.641 -295.953)" fill="#373435" fill-rule="evenodd"/>
      <path id="Path_230" data-name="Path 230" d="M698.469,392.163h7.1a6.757,6.757,0,0,0,4.7-1.878c1.4-1.253,2.1-2.714,2.3-5.95h-2.1c-.2,3.653-2.3,5.95-5,5.95h-7.3l-.051.052a10.351,10.351,0,0,0-7.654,3.6,12.061,12.061,0,0,0-3.3,8.35v29.538h11.306V411.211l2.751.418a9.51,9.51,0,0,1,8.1,4.592,10.914,10.914,0,0,1,1.3,5.114v10.437h2V421.439a13.624,13.624,0,0,0-3.3-8.663,11.488,11.488,0,0,0-8.2-3.236h-2.651V392.163Z" transform="translate(-322.115 -295.977)" fill="#373435" fill-rule="evenodd"/>
    </g>
  </g>
</svg>
