<svg xmlns="http://www.w3.org/2000/svg" width="21" height="22.73" viewBox="0 0 21 22.73">
  <g id="package" transform="translate(-18.3 0.506)">
    <path id="Path_334" data-name="Path 334" d="M38.791,5.122a.569.569,0,0,0-.055-.243.531.531,0,0,0-.371-.293L29.025.055a.554.554,0,0,0-.481,0L19.112,4.626A.552.552,0,0,0,18.8,5.1V16.6a.546.546,0,0,0,.312.5l9.431,4.571s0,0,.009,0a.163.163,0,0,1,.041.018s.009,0,.018,0l.041.014s.009,0,.014,0,.032,0,.046.009h.014c.018,0,.041,0,.06,0a.261.261,0,0,0,.06,0h.014a.163.163,0,0,0,.046-.009s.009,0,.014,0l.041-.014s.009,0,.018,0a.163.163,0,0,0,.041-.018s0,0,.009,0l9.459-4.585a.554.554,0,0,0,.312-.5V5.135C38.791,5.131,38.791,5.126,38.791,5.122ZM28.782,1.16l8.18,3.966L33.949,6.589l-8.18-3.966Zm0,7.932L20.6,5.126l3.906-1.894L32.688,7.2ZM19.9,6.011l8.331,4.039V20.289L19.9,16.249Zm9.431,14.278V10.05l3.911-1.9V10.83a.55.55,0,1,0,1.1,0V7.616L37.69,5.993V16.231Z" transform="translate(0 0)" fill="#fa7268" stroke="#fa7268" stroke-linecap="round" stroke-linejoin="round" stroke-width="1"/>
  </g>
</svg>
