<svg xmlns="http://www.w3.org/2000/svg" width="20" height="20" viewBox="0 0 20 20">
  <g id="Price" transform="translate(-185 -290)">
    <rect id="Rectangle_554" data-name="Rectangle 554" width="20" height="20" transform="translate(185 290)" fill="none"/>
    <path id="Path_148" data-name="Path 148" d="M.333,12.667c-.167-.333-.333-.5-.333-.833A1.273,1.273,0,0,1,.333,11L11.167.167A.163.163,0,0,1,11.333,0h7.333A1.273,1.273,0,0,1,19.5.333a1.188,1.188,0,0,1,.5,1V8.667c0,.167,0,.167-.167.333L9,19.833A7.218,7.218,0,0,1,8.167,20a1.273,1.273,0,0,1-.833-.333ZM14.333,3a2.057,2.057,0,0,0-.667,1.333,1.893,1.893,0,0,0,.5,1.333,2.028,2.028,0,0,0,2.667,0,1.892,1.892,0,0,0,.5-1.333A1.8,1.8,0,0,0,17,3a2.028,2.028,0,0,0-2.667,0Z" transform="translate(185 290)" fill="#c1c1c1"/>
  </g>
</svg>
