<svg xmlns="http://www.w3.org/2000/svg" width="22" height="22" viewBox="0 0 22 22">
  <g id="Options" transform="translate(-16 -598)">
    <rect id="Rectangle_981" data-name="Rectangle 981" width="22" height="22" transform="translate(16 598)" fill="none"/>
    <path id="Union_62" data-name="Union 62" d="M15.75,22a2,2,0,0,1-2-2V15.75a2,2,0,0,1,2-2H20a2,2,0,0,1,2,2V20a2,2,0,0,1-2,2ZM2,22a2,2,0,0,1-2-2V15.75a2,2,0,0,1,2-2H6.25a2,2,0,0,1,2,2V20a2,2,0,0,1-2,2ZM15.75,8.25a2,2,0,0,1-2-2V2a2,2,0,0,1,2-2H20a2,2,0,0,1,2,2V6.25a2,2,0,0,1-2,2ZM2,8.25a2,2,0,0,1-2-2V2A2,2,0,0,1,2,0H6.25a2,2,0,0,1,2,2V6.25a2,2,0,0,1-2,2Z" transform="translate(16 598)" fill="#373435"/>
  </g>
</svg>
