<svg xmlns="http://www.w3.org/2000/svg" width="21.004" height="26.229" viewBox="0 0 21.004 26.229">
  <path id="Path_333" data-name="Path 333" d="M73.008,20.8l-1.126-14.2a1.774,1.774,0,0,0-1.761-1.631H67.9v-.1a4.876,4.876,0,1,0-9.752,0v.1H55.919a1.774,1.774,0,0,0-1.761,1.629l-1.127,14.2a4.108,4.108,0,0,0,4.1,4.422H68.913a4.108,4.108,0,0,0,4.1-4.424ZM59.622,4.877a3.4,3.4,0,1,1,6.8,0v.1h-6.8ZM70.842,22.908a2.6,2.6,0,0,1-1.929.843H57.127a2.63,2.63,0,0,1-2.622-2.829l1.127-14.2a.29.29,0,0,1,.288-.266h2.225v1.82a.739.739,0,1,0,1.477,0V6.455h6.8v1.82a.739.739,0,1,0,1.477,0V6.455h2.225a.29.29,0,0,1,.288.268l1.126,14.2A2.6,2.6,0,0,1,70.842,22.908Z" transform="translate(-52.518 0.5)" fill="#c1c1c1" stroke="#c1c1c1" stroke-width="1"/>
</svg>
