<svg xmlns="http://www.w3.org/2000/svg" width="19.025" height="23.734" viewBox="0 0 19.025 23.734">
  <path id="Path_413" data-name="Path 413" d="M71.032,18.748,70.016,5.954a1.6,1.6,0,0,0-1.587-1.47h-2v-.09a4.394,4.394,0,1,0-8.787,0v.09h-2a1.6,1.6,0,0,0-1.586,1.468l-1.015,12.8a3.7,3.7,0,0,0,3.69,3.985h10.62a3.7,3.7,0,0,0,3.69-3.987ZM58.969,4.394a3.062,3.062,0,1,1,6.125,0v.09H58.969ZM69.08,20.643a2.345,2.345,0,0,1-1.738.76H56.721a2.37,2.37,0,0,1-2.363-2.55l1.015-12.8a.261.261,0,0,1,.259-.24h2v1.64a.666.666,0,1,0,1.331,0V5.816h6.125v1.64a.666.666,0,1,0,1.331,0V5.816h2a.262.262,0,0,1,.259.242L69.7,18.851A2.346,2.346,0,0,1,69.08,20.643Z" transform="translate(-52.519 0.5)" fill="#fff" stroke="#fff" stroke-width="1"/>
</svg>
