<svg xmlns="http://www.w3.org/2000/svg" width="22.766" height="16" viewBox="0 0 22.766 16">
  <path id="Path_329" data-name="Path 329" d="M.8,101.6V91.914a.975.975,0,0,1,.975-.975h9.681a.975.975,0,0,1,.975.975V101.6a.325.325,0,0,1-.325.325H1.124A.325.325,0,0,1,.8,101.6Zm7.818,3.318A2.021,2.021,0,1,1,6.6,102.9,2.021,2.021,0,0,1,8.616,104.918Zm-1.011,0A1.011,1.011,0,1,0,6.6,105.928,1.011,1.011,0,0,0,7.606,104.918ZM4.854,102.9H.325a.325.325,0,0,0-.325.325v.986a.325.325,0,0,0,.325.325H3.955A2.666,2.666,0,0,1,4.854,102.9Zm14.338,2.021a2.021,2.021,0,1,1-2.021-2.021A2.021,2.021,0,0,1,19.192,104.918Zm-1.011,0a1.011,1.011,0,1,0-1.011,1.011A1.011,1.011,0,0,0,18.182,104.918Zm4.584-1.7v.986a.325.325,0,0,1-.325.325h-2.63a2.667,2.667,0,0,0-5.28,0h-5.3a2.666,2.666,0,0,0-.9-1.635h5.022V93.6a.65.65,0,0,1,.65-.65h3.067A2.6,2.6,0,0,1,19.228,94.1l1.977,2.928a2.6,2.6,0,0,1,.445,1.454V102.9h.791A.325.325,0,0,1,22.766,103.221ZM19.47,97.1l-1.581-2.247a.325.325,0,0,0-.266-.138H15.157a.325.325,0,0,0-.325.325V97.29a.325.325,0,0,0,.325.325H19.2A.325.325,0,0,0,19.47,97.1Z" transform="translate(0 -90.939)" fill="#f6f6f6"/>
</svg>
