<svg xmlns="http://www.w3.org/2000/svg" width="49.236" height="34.317" viewBox="0 0 49.236 34.317">
  <g id="Group_927" data-name="Group 927" transform="translate(-194.701 -4572)">
    <g id="Visa_" data-name="Visa " transform="translate(194.7 4572)">
      <rect id="Rectangle_Copy_4" data-name="Rectangle Copy 4" width="49.237" height="34.317" rx="3" fill="#f6f6f6"/>
      <g id="Visa_Inc._logo" transform="translate(8.271 12.063)">
        <path id="polygon9" d="M2.641,9.946H0L1.652,0H4.292Z" transform="translate(11.485 0.18)" fill="#0742a6"/>
        <path id="path11" d="M7.921.423A6.661,6.661,0,0,0,5.553,0C2.945,0,1.109,1.354,1.1,3.29c-.022,1.429,1.315,2.222,2.314,2.7,1.022.487,1.369.8,1.369,1.238-.01.666-.826.973-1.586.973A5.373,5.373,0,0,1,.717,7.671L.37,7.513,0,9.745a8.226,8.226,0,0,0,2.945.529c2.771,0,4.575-1.333,4.6-3.4.011-1.132-.7-2-2.217-2.709C4.4,3.714,3.835,3.407,3.835,2.942c.011-.423.478-.857,1.521-.857a4.589,4.589,0,0,1,1.967.381l.239.106L7.921.423Z" transform="translate(15.777 0)" fill="#0742a6"/>
        <path id="path13" d="M2.771,9.946H0L3.922.825A1.3,1.3,0,0,1,5.3,0H7.345l2.13,9.945H7.03c0-.012-.239-1.144-.315-1.492H3.325L2.771,9.946ZM5.488,2.69c-.079.219-.191.523-.266.724s-.082.222-.083.227c-.008.022-.838,2.216-1.054,2.782H6.28c-.108-.5-.6-2.855-.608-2.878Z" transform="translate(23.123 0.18)" fill="#0742a6"/>
        <path id="path15" d="M6.52,0,3.934,6.782,3.651,5.407A7.67,7.67,0,0,0,0,1.238l2.369,8.7H5.161L9.312,0H6.52Z" transform="translate(2.76 0.18)" fill="#0742a6"/>
        <path id="path17" d="M4.292,0H.043L0,.2A8.774,8.774,0,0,1,6.411,5.407L5.487.836A1.09,1.09,0,0,0,4.292,0Z" transform="translate(0 0.18)" fill="#0742a6"/>
      </g>
    </g>
  </g>
</svg>
