<svg id="American_Express_" data-name="American Express " xmlns="http://www.w3.org/2000/svg" width="49.236" height="34.317" viewBox="0 0 49.236 34.317">
  <rect id="Rectangle_Copy_4" data-name="Rectangle Copy 4" width="49.237" height="34.317" rx="3" fill="#016fd0"/>
  <g id="American_Express_logo__2018_" data-name="American_Express_logo_(2018)" transform="translate(0.049 8.269)">
    <path id="path3082" d="M0,7.655V0H8.148l.874,1.134L9.926,0H39.5V7.127a3.427,3.427,0,0,1-1.668.528H21.457l-.986-1.207V7.655h-3.23V5.6a2.721,2.721,0,0,1-1.4.288h-1.1V7.655H9.856L8.984,6.5,8.1,7.655Z" transform="translate(9.515 10.031)" fill="#fff"/>
    <path id="path3080" d="M0,4.261,1.837,0H5.015L6.058,2.387V0h3.95l.621,1.725L11.231,0H28.963V.867A3.836,3.836,0,0,1,31.427,0L37.18.02l1.025,2.356V0h3.306l.91,1.353V0h3.336V7.655H42.421L41.549,6.3V7.655H36.692L36.2,6.448H34.9l-.48,1.207H31.124a3.264,3.264,0,0,1-2.161-.85v.85H24l-.986-1.207V7.655H4.544L4.056,6.448h-1.3L2.27,7.655H0Z" transform="translate(0 0)" fill="#fff"/>
    <path id="path3046" d="M1.613,5.732H0L2.478,0H4.357L6.833,5.731H5.184L4.729,4.584H2.071L1.613,5.732ZM3.4,1.334,2.582,3.34H4.206Z" transform="translate(0.009 0.944)" fill="#016fd0"/>
    <path id="path3048" d="M0,5.732V0L2.293.008,3.627,3.7,4.928,0H7.2V5.732H5.762V1.508L4.235,5.732H2.972L1.441,1.508V5.732Z" transform="translate(7.013 0.943)" fill="#016fd0"/>
    <path id="path3050" d="M0,5.732V0H4.7V1.282H1.456v.98H4.625V3.469H1.456V4.487H4.7V5.732Z" transform="translate(15.202 0.943)" fill="#016fd0"/>
    <path id="path3052" d="M1.441,5.733H0V0H3.206A1.866,1.866,0,0,1,5.22,1.86,1.76,1.76,0,0,1,3.639,3.62l1.894,2.11H3.774L2.047,3.7H1.441V5.732Zm0-4.45V2.489H3.109a.647.647,0,0,0,.661-.6.662.662,0,0,0-.682-.6Z" transform="translate(20.736 0.944)" fill="#016fd0"/>
    <path id="path3054" d="M1.471,5.732H0V0H1.471Z" transform="translate(26.544 0.943)" fill="#016fd0"/>
    <path id="path3056" d="M2.786,5.732H2.469C.933,5.732,0,4.528,0,2.889A2.633,2.633,0,0,1,2.862,0H4.454V1.358H2.8A1.381,1.381,0,0,0,1.46,2.9,1.407,1.407,0,0,0,3.014,4.48h.379Z" transform="translate(28.716 0.943)" fill="#016fd0"/>
    <path id="path3058" d="M1.613,5.732H0L2.478,0H4.357L6.833,5.731H5.184L4.729,4.584H2.071L1.613,5.732ZM3.4,1.334,2.582,3.34H4.206Z" transform="translate(32.159 0.944)" fill="#016fd0"/>
    <path id="path3060" d="M0,5.732V0H1.832L4.17,3.6V0H5.611V5.732H3.838l-2.4-3.7v3.7Z" transform="translate(39.161 0.943)" fill="#016fd0"/>
    <path id="path3062" d="M0,5.732V0H4.7V1.282H1.456v.98H4.625V3.469H1.456V4.487H4.7V5.732Z" transform="translate(10.501 10.973)" fill="#016fd0"/>
    <path id="path3064" d="M0,5.732V0H4.7V1.282H1.456v.98H4.61V3.469H1.456V4.487H4.7V5.732Z" transform="translate(33.535 10.973)" fill="#016fd0"/>
    <path id="path3066" d="M.054,5.732,2.343,2.9,0,0H1.815l1.4,1.794L4.611,0H6.355L4.042,2.866,6.335,5.732H4.52L3.165,3.967,1.843,5.732Z" transform="translate(15.33 10.973)" fill="#016fd0"/>
    <path id="path3068" d="M1.478,5.732H0V0H3.182A1.9,1.9,0,0,1,5.25,1.928,1.982,1.982,0,0,1,2.995,3.922H1.478V5.731Zm0-4.435V2.616H3.07a.667.667,0,0,0,.716-.66A.65.65,0,0,0,3.075,1.3Z" transform="translate(21.836 10.974)" fill="#016fd0"/>
    <path id="path3072" d="M1.441,5.733H0V0H3.206A1.866,1.866,0,0,1,5.22,1.86,1.76,1.76,0,0,1,3.639,3.62l1.894,2.11H3.774L2.047,3.7H1.441V5.732Zm0-4.45V2.489H3.109a.647.647,0,0,0,.661-.6.662.662,0,0,0-.682-.6Z" transform="translate(27.712 10.973)" fill="#016fd0"/>
    <path id="path3074" d="M.183,5.732V4.487H3.066c.427,0,.611-.229.611-.481s-.184-.485-.611-.485h-1.3A1.607,1.607,0,0,1,0,1.805C0,.886.578,0,2.26,0H5.066L4.459,1.29H2.033c-.464,0-.607.242-.607.473a.5.5,0,0,0,.531.5H3.322a1.577,1.577,0,0,1,1.81,1.645A1.723,1.723,0,0,1,3.253,5.732Z" transform="translate(38.72 10.973)" fill="#016fd0"/>
    <path id="path3076" d="M.183,5.732V4.487H3.066c.427,0,.611-.229.611-.481s-.184-.485-.611-.485h-1.3A1.607,1.607,0,0,1,0,1.805C0,.886.578,0,2.26,0H5.066L4.459,1.29H2.033c-.464,0-.607.242-.607.473a.5.5,0,0,0,.531.5H3.322a1.577,1.577,0,0,1,1.81,1.645A1.723,1.723,0,0,1,3.253,5.732Z" transform="translate(44.007 10.973)" fill="#016fd0"/>
  </g>
</svg>
