<svg xmlns="http://www.w3.org/2000/svg" width="24" height="24" viewBox="0 0 24 24">
  <path id="Path_415" data-name="Path 415" d="M13.929,17.143,16.5,14.786a.787.787,0,0,1,.643-.214l.429.214,6,2.786c.429.214.429.429.429.857a5.432,5.432,0,0,1-1.714,3.857A6.138,6.138,0,0,1,17.786,24a13.057,13.057,0,0,1-6-1.5,28.091,28.091,0,0,1-6-4.286A36.5,36.5,0,0,1,2.571,13.5,29.62,29.62,0,0,1,.429,8.786,13.187,13.187,0,0,1,0,4.714,5.631,5.631,0,0,1,1.5,1.5,6.517,6.517,0,0,1,5.571,0a1.113,1.113,0,0,1,.857.429l3.214,6a.748.748,0,0,0,.214.429.787.787,0,0,1-.214.643L6.857,10.071a.956.956,0,0,0,0,1.071,20.463,20.463,0,0,0,2.571,3.429,21.636,21.636,0,0,0,3.429,2.786C13.286,17.571,13.714,17.571,13.929,17.143Z" fill="#707070"/>
</svg>
