<svg xmlns="http://www.w3.org/2000/svg" width="25" height="17.57" viewBox="0 0 25 17.57">
  <g id="delivery-truck" transform="translate(0 -90.94)">
    <path id="Path_324" data-name="Path 324" d="M.877,102.646V92.009a1.07,1.07,0,0,1,1.07-1.07H12.579a1.07,1.07,0,0,1,1.07,1.07v10.637a.357.357,0,0,1-.357.357H1.234A.357.357,0,0,1,.877,102.646Zm8.585,3.644a2.22,2.22,0,1,1-2.22-2.22A2.22,2.22,0,0,1,9.462,106.29Zm-1.11,0a1.11,1.11,0,1,0-1.11,1.11A1.11,1.11,0,0,0,8.352,106.29Zm-3.022-2.22H.357a.357.357,0,0,0-.357.357v1.082a.357.357,0,0,0,.357.357H4.344A2.928,2.928,0,0,1,5.331,104.07Zm15.745,2.22a2.22,2.22,0,1,1-2.22-2.22A2.22,2.22,0,0,1,21.076,106.29Zm-1.11,0a1.11,1.11,0,1,0-1.11,1.11A1.11,1.11,0,0,0,19.966,106.29ZM25,104.427v1.082a.357.357,0,0,1-.357.357H21.755a2.929,2.929,0,0,0-5.8,0H10.141a2.928,2.928,0,0,0-.987-1.8h5.514v-10.2a.714.714,0,0,1,.713-.713H18.75a2.854,2.854,0,0,1,2.365,1.257l2.171,3.216a2.854,2.854,0,0,1,.489,1.6v4.848h.868A.357.357,0,0,1,25,104.427Zm-3.619-6.719-1.736-2.467a.357.357,0,0,0-.292-.151H16.645a.357.357,0,0,0-.357.357v2.467a.357.357,0,0,0,.357.357h4.444A.357.357,0,0,0,21.381,97.708Z" transform="translate(0 0)" fill="#fa7268"/>
  </g>
</svg>
