<svg xmlns="http://www.w3.org/2000/svg" xmlns:xlink="http://www.w3.org/1999/xlink" width="24" height="18" viewBox="0 0 24 18">
  <defs>
    <clipPath id="clip-path">
      <path id="Path_411" data-name="Path 411" d="M-80.213,0h24V18h-24Z" fill="rgba(0,0,0,0.67)"/>
    </clipPath>
  </defs>
  <g id="gb" transform="translate(80.213)" clip-path="url(#clip-path)">
    <g id="Group_1038" data-name="Group 1038" transform="translate(-86.213)">
      <path id="Path_407" data-name="Path 407" d="M-240.64,0h36V18h-36Z" transform="translate(240.64)" fill="#006"/>
      <path id="Path_408" data-name="Path 408" d="M-240.64,0V2.012L-208.664,18h4.025V15.988L-236.615,0Zm36,0V2.012L-236.615,18h-4.025V15.988L-208.664,0Z" transform="translate(240.64)" fill="#fff"/>
      <path id="Path_409" data-name="Path 409" d="M-225.64,0V18h6V0Zm-15,6v6h36V6Z" transform="translate(240.64)" fill="#fff"/>
      <path id="Path_410" data-name="Path 410" d="M-240.64,7.2v3.6h36V7.2Zm16.2-7.2V18h3.6V0Zm-16.2,18,12-6h2.683l-12,6Zm0-18,12,6h-2.683l-9.317-4.658Zm21.317,6,12-6h2.683l-12,6Zm14.683,12-12-6h2.683l9.317,4.658Z" transform="translate(240.64)" fill="#c00"/>
    </g>
  </g>
</svg>
