<svg id="Lock" xmlns="http://www.w3.org/2000/svg" width="16" height="17.778" viewBox="0 0 16 17.778">
  <path id="Path_49" data-name="Path 49" d="M8,8.889a2.223,2.223,0,1,1-2.286,2.222A2.261,2.261,0,0,1,8,8.889ZM8,2.222A2.261,2.261,0,0,0,5.714,4.444h4.571A2.261,2.261,0,0,0,8,2.222Zm5.714,15.556H2.286A2.261,2.261,0,0,1,0,15.556V6.667A2.261,2.261,0,0,1,2.286,4.444H3.429A4.523,4.523,0,0,1,8,0a4.523,4.523,0,0,1,4.571,4.444h1.143A2.261,2.261,0,0,1,16,6.667v8.889A2.261,2.261,0,0,1,13.714,17.778Z" transform="translate(0)" fill="#373435" fill-rule="evenodd"/>
</svg>
