<svg xmlns="http://www.w3.org/2000/svg" width="170" height="47.812" viewBox="0 0 170 47.812">
  <g id="Group_476" data-name="Group 476" transform="translate(-165.119 -262.356)">
    <path id="Path_326" data-name="Path 326" d="M241.832,275.139c.346-.408.774-1.307,1.152-1.286a10.033,10.033,0,0,1,3.075.839c.221.089.3.75.3,1.147-.021,4.007-.107,8.013-.091,12.019a9.888,9.888,0,0,0,.511,2.916c.539,1.689,1.9,1.91,3.03.526a4.826,4.826,0,0,0,1.158-3.826,19.145,19.145,0,0,1,.916-9.015,9.518,9.518,0,0,1,3.165-4.445,4.626,4.626,0,0,1,6.407.6c.21.23.409.469.606.7.1-.061.2-.088.205-.128.225-1.6.425-1.739,2.072-1.39.346.073.686.176,1.029.263a1.406,1.406,0,0,1,1.144,1.634c-.086,4.148-.115,8.3-.163,12.446-.005.363,0,.726,0,1.089l.35.155a4.009,4.009,0,0,1,.233-.469,32.322,32.322,0,0,0,4.433-9.028,1.808,1.808,0,0,0-.364-2.009,2.984,2.984,0,0,1-.3-3.4,2.612,2.612,0,0,1,2.273-1.689,1.973,1.973,0,0,1,2.448,2.276c-.008.28-.047.558-.09,1.054.964-.163,1.848-.307,2.731-.464.662-.118,1.317-.3,1.984-.373,2.161-.234,3.107.888,2.652,3.018-.435,2.041-.855,4.089-1.178,6.15a11.407,11.407,0,0,0,.7,6.161c.265.644.948,1.5,1.5,1.544a3.331,3.331,0,0,0,2.749-3.846,18.843,18.843,0,0,1,.813-9.949,7.853,7.853,0,0,1,3.568-4.6,4.863,4.863,0,0,1,6.146,1.263c.152.184.309.364.482.569.232-.542.419-1.424.651-1.436a10.523,10.523,0,0,1,2.959.293c.778.184.844.9.837,1.633-.038,4.182-.07,8.364-.021,12.545a7.332,7.332,0,0,0,.6,2.563,1.465,1.465,0,0,0,2.57.511,6.7,6.7,0,0,0,2.157-4.7q.011-6.064.037-12.128c.006-1.348.169-1.485,1.475-1.29.14.021.282.029.424.048,2.084.281,2.2.413,2.194,2.521q0,2.846,0,5.69l.266.049c.184-.5.365-1,.552-1.5.66-1.757,1.274-3.533,2-5.263.687-1.641,1.2-1.9,2.632-1.6,1.809.383,2.731,1.328,2.8,2.84q.183,4.143.385,8.285a.99.99,0,0,0,.273.669c.079-.223.17-.442.237-.668.941-3.188,1.817-6.4,2.844-9.556.531-1.631,1.337-1.935,2.973-1.433a8.562,8.562,0,0,1,1.654.717,2.33,2.33,0,0,1,1.244,2.277c-.063,3.507-.111,7.017-.018,10.522a12.592,12.592,0,0,0,.8,3.709,1.906,1.906,0,0,0,1.352,1.1,1.975,1.975,0,0,0,1.442-.994c.488-.965.681-2.074,1.085-3.089.14-.352.54-.6.821-.9.151.353.476.733.425,1.053a20.694,20.694,0,0,1-.888,4.114,3.733,3.733,0,0,1-3.619,2.514,4.108,4.108,0,0,1-3.911-2.29,14.3,14.3,0,0,1-1.47-6.366c-.1-2.087-.041-4.182-.051-6.274a2.444,2.444,0,0,0-.239-1.224,10.166,10.166,0,0,0-.522.926,35.744,35.744,0,0,0-2.747,11.521c-.058.711.273,1.618-.8,1.968a2.357,2.357,0,0,1-2.929-.862,11.128,11.128,0,0,1-1.223-3.772c-.349-2.918-.466-5.863-.683-8.8-.02-.265-.079-.528-.173-1.136a12.585,12.585,0,0,0-.9,1.28,28.087,28.087,0,0,0-2.64,10.551c-.088,1.059-.1,2.125-.166,3.186-.017.276,0,.641-.166.808-.949.978-2.113.54-3.211.374-.742-.113-1.355-.45-1.416-1.332-.033-.475-.08-.949-.146-1.724-1.331,1.932-2.619,3.533-4.991,3.19-2.31-.335-3.277-2.012-3.852-4.351-1.331,2.264-2.885,3.895-5.405,4.3-2.71.44-4.38-.9-5.677-3.239-.263.4-.462.707-.657,1.012a4.307,4.307,0,0,1-7.19.668,7.78,7.78,0,0,1-2.17-5.622c.073-2.574.451-5.14.709-7.708.037-.375.139-.745.245-1.288-1.142,0-2.158-.045-3.166.033-.238.018-.552.414-.651.7a43.5,43.5,0,0,1-7.387,12.723,3.02,3.02,0,0,0-.544,1.622c-.177,3.18-.182,6.373-.463,9.543a8.193,8.193,0,0,1-2.37,5.12,6.7,6.7,0,0,1-7.68,1.245,4.537,4.537,0,0,1-2.13-6.156,23.983,23.983,0,0,1,3.545-4.852,38.634,38.634,0,0,1,4.426-4.143c1.035-.847,1.016-1.734.6-2.973a7.263,7.263,0,0,1-5.46,3.421c-2.546.2-3.913-1.479-5.235-3.42-1.2,1.826-2.332,3.7-4.862,3.356-2.383-.325-3.447-2.014-4.067-4.4-1.505,2.76-3.548,4.574-6.62,4.422-3.329-.166-4.373-2.823-5.326-5.679a11.127,11.127,0,0,1-.56,1.1,21.206,21.206,0,0,1-2.313,3.273,3.894,3.894,0,0,1-6.107-.559,10.252,10.252,0,0,1-1.745-4.847,1.878,1.878,0,0,0-.41-1.028c-.247.492-.481.992-.745,1.475-1.583,2.892-3.609,5.317-7.037,6.007a10.39,10.39,0,0,1-6.274-.515c-.659-.287-1.625-1.171-1.537-1.594a5.965,5.965,0,0,1,1.553-2.371c.131-.151.787.028,1.124.2.655.342,1.215.883,1.886,1.175a2.162,2.162,0,0,0,3.2-1.551,3.9,3.9,0,0,0-.752-3.8c-1.126-1.312-2.361-2.53-3.672-3.918-.369.549-.569.824-.745,1.113-1.369,2.239-2.722,4.487-4.1,6.719a11.233,11.233,0,0,1-3.852,4.043c-2.192,1.26-4.01.62-4.527-1.841a28.46,28.46,0,0,1-.445-5.8c0-2.835.18-5.67.274-8.5a10.451,10.451,0,0,0-.109-1.1,14.821,14.821,0,0,0-1.15,1.146,27,27,0,0,0-4.507,9.439c-.589,2.075-1.038,4.193-1.453,6.31-.155.793-.544.979-1.236.948-2.418-.106-3.014-.673-3.019-3.181-.011-5.6.043-11.206.045-16.81,0-.907.377-1.234,1.24-1.072.314.059.632.1.94.182,1.584.4,1.734.6,1.727,2.253q-.017,3.67-.028,7.341a1.413,1.413,0,0,0,.245.854c.256-.666.459-1.357.777-1.991a60.776,60.776,0,0,1,3.442-6.563c1.61-2.408,3.52-2.621,5.986-1.146a2.684,2.684,0,0,1,1.436,2.63q-.209,4.889-.305,9.782a12.708,12.708,0,0,0,.248,2.844c.2.94.875,1.124,1.541.434a13.9,13.9,0,0,0,1.848-2.325c1.284-2.08,2.467-4.223,3.729-6.317a1.033,1.033,0,0,0-.11-1.322,4.071,4.071,0,0,1-.17-4.609,4.771,4.771,0,0,1,4.185-2.511c1.405-.071,2.188.755,1.91,2.144a13.431,13.431,0,0,1-1.239,3.006,10.5,10.5,0,0,1-.968,1.382c.771.572,1.518,1.1,2.229,1.662.97.774,1.94,1.552,2.86,2.383a5.878,5.878,0,0,1,2.092,5.361,8.729,8.729,0,0,0,3.555-6.5c.1-3.083.032-6.17.075-9.255.01-.724-.194-1.022-.96-.992-1.135.045-2.274-.028-3.409-.01-.689.011-.941-.3-.962-.958-.05-1.645.586-2.3,2.234-2.238.781.027,1.564.008,2.343.06.712.048,1.019-.176,1.018-.946,0-1.453.1-2.906.16-4.358.051-1.139.382-1.415,1.542-1.306.211.02.423.05.633.087,2.519.453,2.622.605,2.515,3.116-.05,1.163-.009,2.331-.009,3.648,1.664.091,3.35.188,5.037.276,1.46.075,1.854.649,1.2,1.956a1.6,1.6,0,0,1-1.124.716c-1.483.126-2.978.15-4.468.157-.636,0-.88.222-.89.861-.078,4.641-.224,9.282-.237,13.924a10,10,0,0,0,.677,3.3,1.345,1.345,0,0,0,2.244.657,6.117,6.117,0,0,0,1.61-1.8,10.158,10.158,0,0,0,1.538-5.224,15.446,15.446,0,0,1,2.086-8.033c1.6-2.689,4.288-3.829,6.733-2.734A13.74,13.74,0,0,1,241.832,275.139ZM262.6,282.66a32.191,32.191,0,0,0-1.124-4.778,2.212,2.212,0,0,0-3.871-.769,7.57,7.57,0,0,0-1.72,2.738,15.709,15.709,0,0,0-.756,7.528,11,11,0,0,0,.939,3.438c.9,1.818,2.641,1.982,3.933.422a7,7,0,0,0,1.417-2.57C261.928,286.735,262.208,284.742,262.6,282.66Zm27.864,2.84.168.02a6.479,6.479,0,0,0,.013,1.271,19.182,19.182,0,0,0,.953,3.984c.878,1.966,2.7,2.115,4.034.438a8.042,8.042,0,0,0,1.229-2.208,16.538,16.538,0,0,0,.883-7.831,9.326,9.326,0,0,0-.989-3.307,2.382,2.382,0,0,0-4.146-.313,7.064,7.064,0,0,0-1.339,2.72C290.874,281.986,290.721,283.755,290.466,285.5Zm-55.8-.365.291.043a10.391,10.391,0,0,0,.029,2.221,13.165,13.165,0,0,0,1.146,3.585,1.985,1.985,0,0,0,3.456.3,8.069,8.069,0,0,0,1.562-2.608,17.678,17.678,0,0,0,.691-9c-.338-1.956-1.444-3.252-2.758-3.378-1.386-.133-2.743.9-3.3,2.924C235.256,281.156,235.03,283.164,234.67,285.135Zm28.387,11.8-.475-.161c-2.528,2.268-4.87,4.682-6.059,7.987a3.49,3.49,0,0,0-.125.516,2.558,2.558,0,0,0,3.183,3.153,3.222,3.222,0,0,0,2.61-2.892C262.606,302.686,262.783,299.8,263.057,296.932Z" transform="translate(0)" fill="#373435"/>
    <path id="Path_327" data-name="Path 327" d="M173.348,264.876c-.446.538-.905,1.064-1.334,1.615a13.827,13.827,0,0,0-2.843,10.781,15.382,15.382,0,0,0,1.177,3.039,6.166,6.166,0,0,1,.2,1.078,3.422,3.422,0,0,1-1.083,0,6.716,6.716,0,0,1-4.239-7.5,15.8,15.8,0,0,1,7.036-10.587,4.66,4.66,0,0,1,5.011-.39,1.68,1.68,0,0,1,1.061,1.66c-.021,8.119,0,16.239-.016,24.358a13.508,13.508,0,0,1-1.142,5.9,6.783,6.783,0,0,1-3.449,3.6,3.289,3.289,0,0,1-1,.086,2.619,2.619,0,0,1-.017-.9,25.1,25.1,0,0,0,1.056-8.607q.042-11.328.089-22.656c0-.406-.044-.812-.067-1.219Z" fill="#373435"/>
  </g>
</svg>
