<svg xmlns="http://www.w3.org/2000/svg" width="18" height="18" viewBox="0 0 18 18">
  <path id="Path_110" data-name="Path 110" d="M10.446,12.857l1.929-1.768a.59.59,0,0,1,.482-.161l.321.161,4.5,2.089c.321.161.321.321.321.643a4.074,4.074,0,0,1-1.286,2.893A4.6,4.6,0,0,1,13.339,18a9.792,9.792,0,0,1-4.5-1.125,21.068,21.068,0,0,1-4.5-3.214,27.374,27.374,0,0,1-2.411-3.536A22.215,22.215,0,0,1,.321,6.589,9.89,9.89,0,0,1,0,3.536,4.223,4.223,0,0,1,1.125,1.125,4.887,4.887,0,0,1,4.179,0a.835.835,0,0,1,.643.321l2.411,4.5a.561.561,0,0,0,.161.321.59.59,0,0,1-.161.482L5.143,7.554a.717.717,0,0,0,0,.8,15.347,15.347,0,0,0,1.929,2.571,16.227,16.227,0,0,0,2.571,2.089C9.964,13.179,10.286,13.179,10.446,12.857Z" fill="#373435"/>
</svg>
