<svg xmlns="http://www.w3.org/2000/svg" width="25" height="14.902" viewBox="0 0 25 14.902">
  <path id="Path_338" data-name="Path 338" d="M12.5,98.725c-4.777,0-9.108,2.613-12.3,6.858a.99.99,0,0,0,0,1.181c3.2,4.25,7.528,6.863,12.3,6.863s9.108-2.613,12.3-6.858a.99.99,0,0,0,0-1.181C21.608,101.338,17.277,98.725,12.5,98.725Zm.343,12.7a5.258,5.258,0,1,1,4.9-4.9A5.261,5.261,0,0,1,12.843,111.423ZM12.684,109a2.831,2.831,0,1,1,2.644-2.644A2.827,2.827,0,0,1,12.684,109Z" transform="translate(0 -98.725)" fill="#c1c1c1"/>
</svg>
